<svg width="10" height="10" viewBox="0 0 10 10" fill="none" xmlns="http://www.w3.org/2000/svg">
<path d="M9.24264 7.8286L6.41421 5.00017L9.24264 2.17175C9.43018 1.98421 9.53553 1.72986 9.53553 1.46464C9.53553 1.19942 9.43018 0.945069 9.24264 0.757533C9.0551 0.569997 8.80075 0.46464 8.53553 0.46464C8.27032 0.46464 8.01596 0.569997 7.82843 0.757533L5 3.58596L2.17157 0.757533C1.98404 0.569997 1.72968 0.46464 1.46447 0.46464C1.19925 0.46464 0.944896 0.569997 0.757359 0.757533C0.569823 0.945069 0.464466 1.19942 0.464466 1.46464C0.464467 1.72986 0.569823 1.98421 0.757359 2.17175L3.58579 5.00017L0.757359 7.8286C0.569823 8.01614 0.464466 8.27049 0.464466 8.53571C0.464466 8.80092 0.569823 9.05528 0.757359 9.24281C0.944896 9.43035 1.19925 9.53571 1.46447 9.53571C1.72968 9.53571 1.98404 9.43035 2.17157 9.24281L5 6.41439L7.82843 9.24281C8.01596 9.43035 8.27032 9.53571 8.53553 9.53571C8.80075 9.53571 9.0551 9.43035 9.24264 9.24281C9.43018 9.05528 9.53553 8.80092 9.53553 8.53571C9.53553 8.27049 9.43018 8.01614 9.24264 7.8286Z" fill="#191C1F"/>
</svg>
